# xmcd
#
# Track frame offsets:
#	150
#	19245
#	21345
#	42460
#	60175
#	80320
#	84025
#	105305
#	112337
#	137132
#	156175
#	162672
#	183945
#	209570
#	235717
#	256405
#	280282
#	298100
#	315837
#
# Disc length: 4457 seconds
#
# Revision: 1
# Processed by: cddbd v1.5PL3 Copyright (c) Steve Scherf et al.
# Submitted via: CDex 1.50Beta5
#
DISCID=03116713
DTITLE=mette hartmann - Swan
DYEAR=1900
DGENRE=Pop
TTITLE0=I Believe
TTITLE1=One Thing
TTITLE2=That's What I Do
TTITLE3=He Walks Alone
TTITLE4=Every Beat Of My Heart
TTITLE5=Jungle
TTITLE6=Jungle Of Love
TTITLE7=I Believe Interlude
TTITLE8=Golden Universal Angel
TTITLE9=All Words
TTITLE10=Playgrounds
TTITLE11=My Miracle
TTITLE12=The Pictures
TTITLE13=Sunset On The Highway
TTITLE14=Give Them Your Love
TTITLE15=Thoughts
TTITLE16=Swan
TTITLE17=My Day
TTITLE18=Change
EXTD=
EXTT0=
EXTT1=
EXTT2=
EXTT3=
EXTT4=
EXTT5=
EXTT6=
EXTT7=
EXTT8=
EXTT9=
EXTT10=
EXTT11=
EXTT12=
EXTT13=
EXTT14=
EXTT15=
EXTT16=
EXTT17=
EXTT18=
PLAYORDER=
